{
 "asset": {
  "version": "2.0",
  "generator": "홀로그램 뷰어 샘플"
 },
 "scene": 0,
 "scenes": [
  {
   "nodes": [
    0
   ]
  }
 ],
 "nodes": [
  {
   "mesh": 0,
   "name": "삼각형"
  }
 ],
 "meshes": [
  {
   "primitives": [
    {
     "attributes": {
      "POSITION": 0,
      "TEXCOORD_0": 1
     },
     "indices": 2,
     "material": 0
    }
   ]
  }
 ],
 "materials": [
  {
   "pbrMetallicRoughness": {
    "baseColorTexture": {
     "index": 0
    }
   }
  }
 ],
 "textures": [
  {
   "source": 0
  }
 ],
 "images": [
  {
   "uri": "textures/나무 바닥.png"
  }
 ],
 "buffers": [
  {
   "uri": "scene.bin",
   "byteLength": 66
  }
 ],
 "bufferViews": [
  {
   "buffer": 0,
   "byteOffset": 0,
   "byteLength": 36,
   "target": 34962
  },
  {
   "buffer": 0,
   "byteOffset": 36,
   "byteLength": 24,
   "target": 34962
  },
  {
   "buffer": 0,
   "byteOffset": 60,
   "byteLength": 6,
   "target": 34963
  }
 ],
 "accessors": [
  {
   "bufferView": 0,
   "componentType": 5126,
   "count": 3,
   "type": "VEC3",
   "min": [
    -1,
    -1,
    0
   ],
   "max": [
    1,
    1,
    0
   ]
  },
  {
   "bufferView": 1,
   "componentType": 5126,
   "count": 3,
   "type": "VEC2"
  },
  {
   "bufferView": 2,
   "componentType": 5123,
   "count": 3,
   "type": "SCALAR"
  }
 ]
}
